<svg xmlns="http://www.w3.org/2000/svg" width="395.99999999999994" height="111.49689307694095" viewBox="0 0 369.66666666666663 104.08253739253158"
     class="css-1j8o68f">
    <defs id="SvgjsDefs5918"/>
    <g id="SvgjsG5919"
       transform="matrix(1.8692985623720375,0,0,1.8692985623720375,-0.0000035654040572586775,-51.704797949978236)"
       fill="#ffe600">
        <path d="M6 45.42 c0 1.8 0.84 3.78 3.36 5.52 c0.42 0.3 -0.78 0.54 -1.44 0.06 c-1.32 -0.96 -2.94 -3.36 -2.94 -5.94 c0 -3.84 2.7 -7.92 7.26 -11.1 c6.3 -4.44 13.14 -6.3 18.18 -6.3 c6.78 0 14.16 3.84 14.16 15.12 c0 8.82 -4.56 20.58 -12.6 28.86 c-6.78 7.08 -16.44 11.7 -22.8 11.7 s-9.18 -3.24 -9.18 -7.8 c0 -5.88 3.6 -13.86 13.2 -20.58 c0.84 -0.54 1.62 -1.08 2.46 -1.56 c2.1 -8.16 4.26 -15.66 4.68 -16.74 c0.66 -1.92 1.2 -0.36 0.78 1.2 c-1.32 4.44 -2.76 9.66 -4.08 14.76 c6.9 -3.66 12.42 -3.66 13.02 -3.6 c0.72 0.06 0.42 0.66 -1.32 0.78 c-1.56 0.12 -6.3 1.02 -12.3 4.92 c-1.62 6.3 -3.12 12.24 -3.96 16.26 c-0.42 1.98 -0.9 0.42 -0.78 -0.3 c0.6 -3.78 1.92 -9.42 3.36 -15 l-1.2 0.9 c-8.76 6.72 -12.96 14.58 -12.96 18.96 c0 3.12 2.58 5.82 8.4 5.82 c6.48 0 17.28 -5.52 21.66 -10.68 c7.56 -8.64 12.06 -18.54 12.06 -28.86 c0 -7.5 -4.44 -12.66 -12.84 -12.66 c-5.16 0 -11.88 2.52 -16.8 5.82 c-4.98 3.3 -7.38 7.44 -7.38 10.44 z"/>
    </g>
    <g id="SvgjsG5920"
       transform="matrix(1.108769663638364,0,0,1.108769663638364,98.34405425841904,23.271214058666743)" fill="#ffe600">
        <path d="M4.1992 40 l0 -27.617 l9.1016 0 c8.4961 0 12.813 5.7031 12.813 13.789 c0 8.1445 -4.3164 13.828 -12.813 13.828 l-9.1016 0 z M8.0859 36.4844 l5.0586 0 c6.0352 0 8.9063 -4.0039 8.9063 -10.313 c0 -6.2695 -2.8711 -10.293 -8.9063 -10.293 l-5.0586 0 l0 20.605 z M57.03630859375 40 l-2.3047 -6.4453 l-12.344 0 l-2.3047 6.4453 l-4.043 0 l10.176 -27.617 l4.6875 0 l10.176 27.617 l-4.043 0 z M43.59910859375 30.1562 l9.9219 0 l-4.9609 -13.926 z M89.9330234375 12.383 l4.1016 0 l-10.156 27.617 l-4.0625 0 l-10.117 -27.617 l4.082 0 l8.0859 22.852 z M124.46961328124999 12.383 l-9.082 14.453 l0 13.164 l-3.9258 0 l0 -13.145 l-9.1016 -14.473 l4.4141 0 l6.6406 10.957 l6.6602 -10.957 l4.3945 0 z M135.919903125 40 l0 -27.617 l9.1016 0 c8.4961 0 12.813 5.7031 12.813 13.789 c0 8.1445 -4.3164 13.828 -12.813 13.828 l-9.1016 0 z M139.806603125 36.4844 l5.0586 0 c6.0352 0 8.9063 -4.0039 8.9063 -10.313 c0 -6.2695 -2.8711 -10.293 -8.9063 -10.293 l-5.0586 0 l0 20.605 z M170.88621171875 40 l0 -27.617 l3.8867 0 l0 27.617 l-3.8867 0 z M199.2509140625 40.37109 c-5.7227 0 -10.156 -3.3789 -10.156 -9.6094 l0 -18.379 l3.8867 0 l0 17.832 c0 4.5508 2.7344 6.6406 6.2695 6.6406 s6.3281 -2.1094 6.3281 -6.6406 l0 -17.832 l3.8867 0 l0 18.379 c0 6.2305 -4.4531 9.6094 -10.215 9.6094 z M239.72484765625 40 l-9.6875 -12.598 l-2.3828 0 l0 12.598 l-3.8867 0 l0 -27.617 l3.8867 0 l0 11.543 l2.3438 0 l9.4141 -11.543 l4.7656 0 l-10.82 13.164 l11.348 14.453 l-4.9805 0 z"/>
    </g>
</svg>